<?xml version="1.0" encoding="iso-8859-1"?>
<!-- Generator: Adobe Illustrator 19.0.0, SVG Export Plug-In . SVG Version: 6.00 Build 0)  -->
<svg version="1.1" id="Capa_1" xmlns="http://www.w3.org/2000/svg" xmlns:xlink="http://www.w3.org/1999/xlink" x="0px" y="0px"
	 viewBox="0 0 512 512" style="enable-background:new 0 0 512 512;" xml:space="preserve">
<path style="fill:#49BBEE;" d="M243.175,512h-80.128l12.778-138h80.128L243.175,512z"/>
<path style="fill:#009AE5;" d="M355.953,512h-80.128l-12.778-138h80.128L355.953,512z"/>
<path style="fill:#FF4F19;" d="M382.5,198h-246v-15c0-35.841,29.159-65,65-65h116c35.841,0,65,29.159,65,65V198z"/>
<path style="fill:#EE2500;" d="M382.5,183c0-35.841-29.159-65-65-65h-58v80h123V183z"/>
<path style="fill:#AEADB3;" d="M136.5,244h-80V140c0-35.841,29.159-65,65-65h15V244z"/>
<path style="fill:#57555C;" d="M461.5,244h-80V75h15c35.841,0,65,29.159,65,65V244z"/>
<path style="fill:#C8C6CD;" d="M396.5,404h-275c-35.841,0-65-29.159-65-65V133l0,0c0,19.299,15.701,35,35,35h335
	c19.299,0,35-15.701,35-35l0,0v206C461.5,374.841,432.341,404,396.5,404z"/>
<g>
	<path style="fill:#FFF5CB;" d="M113.5,313h-45c-24.813,0-45-20.187-45-45s20.187-45,45-45h45V313z"/>
	<path style="fill:#FFF5CB;" d="M259.5,160c-27.57,0-50-22.43-50-50V60h100v50C309.5,137.57,287.07,160,259.5,160z"/>
</g>
<path style="fill:#AEADB3;" d="M461.5,133c0,19.299-15.701,35-35,35h-167v236h137c35.841,0,65-29.159,65-65V133L461.5,133z"/>
<g>
	<path style="fill:#FFDBA9;" d="M443.5,313h-45v-90h45c24.813,0,45,20.187,45,45S468.313,313,443.5,313z"/>
	<path style="fill:#FFDBA9;" d="M259.5,60v100c27.57,0,50-22.43,50-50V60H259.5z"/>
</g>
<path style="fill:#FFDB2D;" d="M324.5,90h-130V65c0-35.841,29.159-65,65-65s65,29.159,65,65V90z"/>
<path style="fill:#FEC000;" d="M324.5,65c0-35.841-29.159-65-65-65v90h65V65z"/>
<g>
</g>
<g>
</g>
<g>
</g>
<g>
</g>
<g>
</g>
<g>
</g>
<g>
</g>
<g>
</g>
<g>
</g>
<g>
</g>
<g>
</g>
<g>
</g>
<g>
</g>
<g>
</g>
<g>
</g>
</svg>
