<?xml version="1.0" encoding="iso-8859-1"?>
<!-- Generator: Adobe Illustrator 19.0.0, SVG Export Plug-In . SVG Version: 6.00 Build 0)  -->
<svg version="1.1" id="Capa_1" xmlns="http://www.w3.org/2000/svg" xmlns:xlink="http://www.w3.org/1999/xlink" x="0px" y="0px"
	 viewBox="0 0 512 512" style="enable-background:new 0 0 512 512;" xml:space="preserve">
<g>
	<path style="fill:#5E5F62;" d="M477.288,134.508c-2.302,0.001-4.509-0.913-6.137-2.541c-1.628-1.628-2.542-3.835-2.541-6.137
		V56.407c0-4.793,3.885-8.678,8.678-8.678c4.793,0,8.678,3.885,8.678,8.678v69.424c0.001,2.302-0.913,4.509-2.541,6.137
		S479.59,134.509,477.288,134.508z"/>
	<path style="fill:#E64C3C;" d="M390.508,134.508c-2.302,0.001-4.509-0.913-6.137-2.541c-1.628-1.628-2.542-3.835-2.541-6.137
		V56.407c0-4.793,3.885-8.678,8.678-8.678c4.793,0,8.678,3.885,8.678,8.678v69.424c0.001,2.302-0.913,4.509-2.541,6.137
		S392.81,134.509,390.508,134.508z"/>
	<path style="fill:#F29C1F;" d="M34.712,4.339h242.983c19.171,0,34.712,15.541,34.712,34.712v433.898
		c0,19.171-15.541,34.712-34.712,34.712H34.712C15.541,507.661,0,492.12,0,472.949V39.051C0,19.88,15.541,4.339,34.712,4.339z"/>
	<path style="fill:#5E5F62;" d="M277.695,56.407v399.186c0,9.585-7.771,17.356-17.356,17.356H52.068
		c-9.585,0-17.356-7.771-17.356-17.356V56.407c0-9.585,7.771-17.356,17.356-17.356h208.271
		C269.924,39.051,277.695,46.821,277.695,56.407z"/>
	<rect x="69.424" y="73.763" style="fill:#46B29D;" width="173.559" height="86.78"/>
	<path style="fill:#A5A5A4;" d="M225.627,290.712c0.013,13.829-4.129,27.344-11.889,38.791c-3.224,4.854-7.076,9.26-11.455,13.104
		c-26.137,23.249-65.492,23.407-91.814,0.369s-31.381-62.067-11.801-91.054c3.224-4.854,7.076-9.26,11.455-13.104
		c20.429-18.159,49.614-22.635,74.546-11.434C209.602,238.586,225.637,263.379,225.627,290.712z"/>
	<path style="fill:#E6E7E8;" d="M213.738,329.502c-3.224,4.854-7.076,9.26-11.455,13.104L98.668,251.921
		c3.224-4.854,7.076-9.26,11.455-13.104L213.738,329.502z"/>
	<g>
		<circle style="fill:#A5A5A4;" cx="86.78" cy="420.881" r="17.356"/>
		<circle style="fill:#A5A5A4;" cx="225.627" cy="420.881" r="17.356"/>
		<circle style="fill:#A5A5A4;" cx="156.203" cy="420.881" r="17.356"/>
	</g>
	<g>
		<path style="fill:#F29C1F;" d="M112.814,203.932H86.78c-4.793,0-8.678-3.885-8.678-8.678c0-4.793,3.885-8.678,8.678-8.678h26.034
			c4.793,0,8.678,3.885,8.678,8.678C121.492,200.047,117.606,203.932,112.814,203.932z"/>
		<path style="fill:#F29C1F;" d="M225.627,203.932h-26.034c-4.793,0-8.678-3.885-8.678-8.678c0-4.793,3.885-8.678,8.678-8.678
			h26.034c4.793,0,8.678,3.885,8.678,8.678C234.305,200.047,230.42,203.932,225.627,203.932z"/>
	</g>
	<path style="fill:#5E5F62;" d="M407.864,429.559H242.983c-4.793,0-8.678-3.885-8.678-8.678c0-4.793,3.885-8.678,8.678-8.678
		h164.881c33.533-0.039,60.707-27.213,60.746-60.746v-34.712c0-4.793,3.885-8.678,8.678-8.678c4.793,0,8.678,3.885,8.678,8.678
		v34.712C485.918,394.572,450.979,429.511,407.864,429.559z"/>
	<path style="fill:#E64C3C;" d="M390.508,308.068c-2.302-0.001-4.509,0.913-6.137,2.541c-1.628,1.628-2.542,3.835-2.541,6.137
		v34.712c-0.039,33.533-27.213,60.707-60.746,60.746H156.203c-4.793,0-8.678,3.885-8.678,8.678c0,4.793,3.885,8.678,8.678,8.678
		h164.881c43.114-0.049,78.053-34.987,78.102-78.102v-34.712c0.001-2.302-0.913-4.509-2.541-6.137S392.81,308.067,390.508,308.068z"
		/>
	<path style="fill:#C03A2B;" d="M381.831,125.831h17.356c4.793,0,8.678,3.885,8.678,8.678V299.39
		c0,9.585-7.771,17.356-17.356,17.356c-9.585,0-17.356-7.771-17.356-17.356V134.508
		C373.153,129.716,377.038,125.831,381.831,125.831z"/>
	<path style="fill:#E64C3C;" d="M416.542,169.22h-52.068c-4.793,0-8.678-3.885-8.678-8.678s3.885-8.678,8.678-8.678h52.068
		c4.793,0,8.678,3.885,8.678,8.678S421.335,169.22,416.542,169.22z"/>
	<path style="fill:#A5A5A4;" d="M468.61,125.831h17.356c4.793,0,8.678,3.885,8.678,8.678V299.39c0,9.585-7.771,17.356-17.356,17.356
		c-9.585,0-17.356-7.771-17.356-17.356V134.508C459.932,129.716,463.817,125.831,468.61,125.831z"/>
	<path style="fill:#5E5F62;" d="M503.322,169.22h-52.068c-4.793,0-8.678-3.885-8.678-8.678s3.885-8.678,8.678-8.678h52.068
		c4.793,0,8.678,3.885,8.678,8.678S508.115,169.22,503.322,169.22z"/>
</g>
<g>
</g>
<g>
</g>
<g>
</g>
<g>
</g>
<g>
</g>
<g>
</g>
<g>
</g>
<g>
</g>
<g>
</g>
<g>
</g>
<g>
</g>
<g>
</g>
<g>
</g>
<g>
</g>
<g>
</g>
</svg>
